<svg viewBox="0 0 48 48" xmlns="http://www.w3.org/2000/svg">
  <path fill="#4285F4" d="M44.5 20H24v8.5h11.8C34.7 33.9 30.1 37 24 37c-7.2 0-13-5.8-13-13s5.8-13 13-13c3.1 0 5.9 1.1 8.1 2.9l6.4-6.4C34.6 4.1 29.6 2 24 2 11.8 2 2 11.8 2 24s9.8 22 22 22c11 0 21-8 21-22 0-1.3-.2-2.7-.5-4z"/>
  <path fill="#34A853" d="M6.3 14.6l6.6 4.8C14.7 15.2 19 12 24 12c3.1 0 5.9 1.1 8.1 2.9l6.4-6.4C34.6 4.1 29.6 2 24 2 16.3 2 9.7 6.1 6.3 14.6z"/>
  <path fill="#FBBC05" d="M24 46c5.5 0 10.1-1.8 13.5-5l-6.6-5.1c-1.8 1.3-4.1 2.1-6.9 2.1-5.3 0-9.8-3.6-11.4-8.4l-6.7 5.2C9.5 40.9 16.2 46 24 46z"/>
  <path fill="#EA4335" d="M44.5 20H24v8.5h11.8c-.6 2.3-1.8 4.1-3.2 5.4l6.6 5.1c3.8-3.5 6.3-8.7 6.3-15 0-1.3-.2-2.7-.5-4z"/>
</svg>